<?xml version="1.0" standalone="no"?>
<!DOCTYPE svg PUBLIC "-//W3C//DTD SVG 20010904//EN"
 "http://www.w3.org/TR/2001/REC-SVG-20010904/DTD/svg10.dtd">
<svg version="1.0" xmlns="http://www.w3.org/2000/svg"
 width="700.000000pt" height="700.000000pt" viewBox="0 0 700.000000 700.000000"
 preserveAspectRatio="xMidYMid meet">
<metadata>
Created by potrace 1.11, written by Peter Selinger 2001-2013
</metadata>
<g transform="translate(0.000000,700.000000) scale(0.100000,-0.100000)"
fill="#000000" stroke="none">
<path d="M4193 6550 c-13 -5 -31 -23 -41 -40 -17 -26 -19 -52 -18 -233 1 -231
6 -247 75 -268 31 -9 44 -9 72 5 59 28 63 40 64 256 2 209 -4 244 -46 274 -25
17 -71 20 -106 6z"/>
<path d="M2901 6191 c-45 -42 -45 -86 0 -162 16 -28 29 -52 29 -55 0 -3 13
-24 28 -47 15 -23 39 -64 52 -91 38 -75 90 -126 129 -126 63 0 111 46 111 108
0 33 -184 355 -218 382 -38 30 -93 26 -131 -9z"/>
<path d="M5445 6202 c-18 -15 -58 -79 -182 -295 -37 -66 -43 -120 -15 -153 39
-49 105 -58 146 -21 14 12 69 96 121 187 109 189 116 217 64 269 -24 25 -39
31 -72 31 -25 -1 -50 -8 -62 -18z"/>
<path d="M2018 5825 c-2 -1 -35 -5 -74 -8 -334 -29 -668 -221 -864 -498 -106
-150 -187 -354 -211 -529 -7 -52 -14 -97 -15 -99 -2 -2 -23 -6 -46 -8 -277
-29 -514 -254 -563 -533 -11 -64 -7 -184 9 -253 36 -154 151 -317 273 -390 18
-10 33 -20 33 -22 0 -2 -33 -21 -73 -43 -181 -100 -324 -252 -407 -435 -22
-50 -54 -143 -52 -154 1 -2 -4 -17 -9 -35 -17 -54 -19 -255 -4 -343 48 -282
228 -527 489 -664 71 -38 192 -76 271 -87 33 -4 63 -9 68 -10 4 -1 68 -2 143
-3 l137 -1 -8 -32 c-4 -18 -15 -73 -24 -123 -14 -75 -20 -90 -37 -93 -57 -8
-162 -36 -184 -50 -82 -50 -110 -71 -153 -117 -157 -165 -179 -437 -51 -630
70 -106 166 -176 299 -216 58 -18 157 -19 2433 -19 2661 0 2450 -6 2617 75
263 128 417 391 402 684 -9 181 -69 324 -190 457 l-59 64 94 1 c51 0 104 2
118 5 318 57 559 293 611 598 18 108 7 246 -29 350 -95 275 -316 452 -614 491
-46 6 -48 7 -48 39 0 18 -5 58 -10 87 -6 30 -13 69 -16 88 -9 57 -63 211 -101
291 -53 112 -151 254 -241 351 -73 77 -82 91 -87 135 -4 27 -11 69 -17 94 -5
25 -12 55 -14 68 -22 115 -118 340 -204 477 -209 334 -550 590 -928 696 -41
11 -87 23 -101 25 -14 3 -33 7 -41 9 -8 2 -42 7 -75 10 -33 4 -71 8 -85 11
-31 5 -258 6 -285 0 -11 -2 -49 -7 -85 -11 -36 -4 -72 -8 -80 -10 -256 -52
-504 -166 -699 -323 -35 -29 -67 -52 -70 -52 -3 0 -19 26 -36 58 -41 79 -129
195 -206 271 -195 196 -459 322 -724 346 -78 8 -174 13 -177 10z"/>
<path d="M6400 5285 c-19 -7 -64 -30 -100 -52 -36 -22 -99 -58 -140 -81 -90
-50 -103 -60 -118 -89 -37 -69 15 -153 95 -153 24 0 334 172 375 208 36 31 32
120 -7 152 -25 21 -69 27 -105 15z"/>
<path d="M6381 4014 c-69 -29 -78 -123 -18 -176 23 -21 13 -20 232 -23 186 -2
231 4 258 36 41 47 27 132 -26 161 -31 18 -404 19 -446 2z"/>
</g>
</svg>
